<svg width="5" height="13" viewBox="0 0 5 13" fill="none" xmlns="http://www.w3.org/2000/svg">
<path d="M3.69498 0.25C3.39661 0.25 3.11046 0.368526 2.89948 0.579505C2.68851 0.790483 2.56998 1.07663 2.56998 1.375C2.56998 1.67337 2.68851 1.95952 2.89948 2.1705C3.11046 2.38147 3.39661 2.5 3.69498 2.5C3.99335 2.5 4.2795 2.38147 4.49048 2.1705C4.70145 1.95952 4.81998 1.67337 4.81998 1.375C4.81998 1.07663 4.70145 0.790483 4.49048 0.579505C4.2795 0.368526 3.99335 0.25 3.69498 0.25ZM3.42498 3.8275C2.53248 3.9025 0.09498 5.845 0.09498 5.845C-0.05502 5.9575 -0.0100196 5.95 0.10998 6.16C0.22998 6.3625 0.21498 6.3775 0.35748 6.28C0.50748 6.1825 0.75498 6.025 1.16748 5.77C2.75748 4.75 1.42248 7.105 0.73998 11.0725C0.46998 13.0375 2.23998 12.025 2.69748 11.725C3.14748 11.4325 4.35498 10.6 4.47498 10.5175C4.63998 10.405 4.51998 10.315 4.39248 10.1275C4.30248 10 4.21248 10.09 4.21248 10.09C3.72498 10.4125 2.83248 11.0875 2.71248 10.66C2.56998 10.2325 3.48498 7.3 3.98748 5.2825C4.06998 4.8025 4.29498 3.7525 3.42498 3.8275Z" fill="white"/>
</svg>
